<svg width="18" height="18" viewBox="0 0 18 18" fill="none" xmlns="http://www.w3.org/2000/svg">
<path fill-rule="evenodd" clip-rule="evenodd" d="M11.9703 0.343698C10.0166 -0.114567 7.9834 -0.114566 6.02975 0.3437C3.20841 1.00549 1.00549 3.20841 0.343699 6.02975C-0.114567 7.98341 -0.114566 10.0166 0.3437 11.9703C1.0055 14.7916 3.20842 16.9945 6.02975 17.6563C7.98341 18.1146 10.0166 18.1146 11.9703 17.6563C14.7916 16.9945 16.9945 14.7916 17.6563 11.9703C18.1146 10.0166 18.1146 7.9834 17.6563 6.02975C16.9945 3.20841 14.7916 1.00549 11.9703 0.343698ZM6.18252 8.46698C5.94821 8.23266 5.9482 7.85277 6.18252 7.61845L8.57573 5.22524C8.68825 5.11271 8.84087 5.0495 9 5.0495C9.15913 5.0495 9.31174 5.11271 9.42426 5.22524L11.8175 7.61845C12.0518 7.85276 12.0518 8.23266 11.8175 8.46698C11.5832 8.70129 11.2033 8.70129 10.9689 8.46698L9.6 7.09803L9.6 12.3505C9.6 12.6819 9.33137 12.9505 9 12.9505C8.66863 12.9505 8.4 12.6819 8.4 12.3505L8.4 7.09803L7.03105 8.46698C6.79673 8.70129 6.41683 8.70129 6.18252 8.46698Z" fill="white"/>
</svg>
